<svg id="Capa_1" enable-background="new 0 0 509.5 509.5" height="512" viewBox="0 0 509.5 509.5" width="512" xmlns="http://www.w3.org/2000/svg"><g><g><g><g><path d="m359.753 164.517c3.878-1.458 7.514-3.747 10.635-6.868 11.716-11.716 11.716-30.711 0-42.426l31.82-31.82s24.636 21.728 21.839 59.728-31.012 54.157-31.012 54.157z" fill="#faef93"/></g><g><g><path d="m406.535 179.902-30.524-30.057c-1.407 2.814-3.275 5.457-5.623 7.804-3.12 3.12-6.757 5.409-10.635 6.868l33.281 32.771s13.054-7.488 22.284-24.233c-4.963 4.653-8.783 6.847-8.783 6.847z" fill="#fde31d"/></g></g><g><path d="m430.897 215.801c1.327-.949 2.593-2.019 3.785-3.211 11.716-11.716 11.716-30.711 0-42.426l31.82-31.82s24.636 21.728 21.839 59.728c-.482 6.548-1.719 12.448-3.436 17.727z" fill="#faef93"/></g><g><g><path d="m442.928 197.052c-1.091 5.693-3.839 11.131-8.247 15.539-1.191 1.192-2.458 2.262-3.785 3.211l54.008-.001c1.717-5.28 2.954-11.179 3.436-17.727.025-.345.032-.679.053-1.022z" fill="#fde31d"/></g></g><g><path d="m99.449 155.811c-1.394-4.338-2.147-8.964-2.147-13.765 0-10.726 3.756-20.571 10.021-28.3 3.643-4.495 4.465-10.73 1.947-15.939-2.328-4.816-3.634-10.218-3.634-15.927 0-21.108 17.836-38.05 39.258-36.578 18.381 1.263 33.146 16.365 34.031 34.768.302 6.265-.972 12.204-3.458 17.458-2.53 5.347-1.877 11.654 1.843 16.253 3.338 4.127 5.961 8.855 7.681 13.997l-46.967 46.961-1.707-1.49c-9.819-8.568-21.709-14.416-34.489-16.963z" fill="#8edf78"/></g><g><path d="m182.303 121.445-33.966 33.961c-7.907-7.082-17.015-12.657-27.104-16.032.615-10.493 5.123-16.949 9.933-25.629 7.333-13.233.684-15.346-1.095-25.607-3.036-17.514 7.287-35.128 24.143-40.929-12.994-4.499-27.844-1.082-37.625 8.546-5.298 5.298-8.946 12.014-10.325 19.393-2.141 11.454 6.217 21.071 4.195 31.818-1.245 6.617-7.164 11.676-9.711 17.787-4.077 9.782-4.542 20.967-1.299 31.059 14.482 2.827 27.609 8.977 38.575 18.927l46.967-46.961c-.733-2.193-1.64-4.305-2.688-6.333z" fill="#31a469"/></g><g><path d="m136.965 176.127c-1.224-1.61-2.571-3.157-4.041-4.628-7.585-7.585-17.204-11.891-27.101-12.926-5.865-.613-10.76-4.632-12.746-10.185-1.958-5.473-5.256-10.572-9.9-14.789-13.639-12.387-34.758-12.625-48.649-.521-16.189 14.107-16.821 38.699-1.895 53.624 4.036 4.036 8.78 6.933 13.832 8.692 5.464 1.903 9.292 6.893 9.894 12.647.259 2.474.722 4.93 1.39 7.342h39.845z" fill="#8edf78"/></g><g><path d="m136.965 176.127c-1.224-1.61-2.571-3.157-4.042-4.628-3.983-3.983-8.53-7.053-13.381-9.229l-32.459 32.3h-10.462c-.655-5.688-4.458-10.605-9.872-12.491-5.052-1.759-9.795-4.656-13.832-8.692-13.145-13.145-14.216-33.784-3.228-48.158-5.475 1.346-10.694 3.955-15.162 7.849-16.189 14.107-16.821 38.699-1.896 53.624 4.037 4.036 8.78 6.933 13.832 8.692 5.464 1.903 9.292 6.893 9.894 12.647.259 2.474.722 4.931 1.39 7.342h39.845l13.354-13.314z" fill="#31a469"/></g><g><path d="m7.5 215.801c0 136.552 110.698 247.25 247.25 247.25 153.791 0 247.25-129.919 247.25-247.25z" fill="#ea5172"/></g><g><path d="m278.083 458.384c-134.992 0-244.701-108.186-247.191-242.583h-23.392c0 136.552 110.698 247.25 247.25 247.25 21.977 0 42.717-2.663 62.133-7.553-12.464 1.878-25.397 2.886-38.8 2.886z" fill="#e21743"/></g><g><path d="m149.75 163.012-52.797 52.797h105.594z" fill="#fcc062"/></g><g><path d="m145.286 195.04 18.246-18.246-13.782-13.782-52.797 52.797h105.594l-20.769-20.769z" fill="#fbb03b"/></g><g><path d="m255.047 163.012-52.797 52.797h105.595z" fill="#fcc062"/></g><g><path d="m250.798 195.04 18.246-18.246-13.782-13.782-52.797 52.797h105.594l-20.769-20.769z" fill="#fbb03b"/></g><g><path d="m359.75 163.012-52.797 52.797h105.594z" fill="#fcc062"/></g><g><path d="m356.178 195.04 18.246-18.246-13.782-13.782-52.797 52.797h105.594l-20.769-20.769z" fill="#fbb03b"/></g><g><path d="m202.25 216.107-52.797-52.798 52.797-52.797 52.797 52.797z" fill="#fcc062"/></g><g><path d="m202.25 184.774-37.131-37.131-15.666 15.666 52.797 52.798 52.797-52.798-15.666-15.666z" fill="#fbb03b"/></g><g><path d="m307.845 216.107-52.798-52.798 52.798-52.797 52.797 52.797z" fill="#fcc062"/></g><g><path d="m307.845 184.774-37.131-37.131-15.667 15.666 52.798 52.798 52.797-52.798-15.666-15.666z" fill="#fbb03b"/></g><g><path d="m66.116 168.57h15v14.997h-15z" fill="#fff" transform="matrix(.707 -.707 .707 .707 -102.937 103.624)"/></g><g><path d="m134.636 95.841h15v14.998h-15z" fill="#fff"/></g><g><path d="m44.75 238.309h15v15h-15z" fill="#fff"/></g><g><path d="m74.75 238.309h15v15h-15z" fill="#fff"/></g></g></g><g><path d="m342.021 439.174 5.463 13.97c4.717-1.844 9.443-3.858 14.047-5.986l-6.293-13.616c-4.333 2.002-8.779 3.897-13.217 5.632z"/><path d="m493.438 208.301c6.635-31.262-5.816-59.138-27.622-80.942l-40.274 40.273c3.404-8.332 5.459-17.226 5.991-26.37l-14.975-.872c-1.032 17.713-9.22 34.569-22.437 46.389l-21.267-21.266c14.69-12.012 18.145-33.897 7.61-49.762l21.453-21.452c7.534 9.389 12.361 20.515 14.078 32.568l14.85-2.114c-2.985-20.963-13.998-37.315-28.64-51.956l-42.427 42.426c11.069 11.07 18.567 28.08 2.359 39.573l-54.89-54.89-52.5 52.5-52.5-52.5-15.004 15.004c-4.035-6.663-5.791-8.02-4.174-16.169 1.317-6.639 3.685-11.968 3.345-19.031-2.667-55.429-88.28-53.606-88.28 2.17 0 9.508 6.798 18.34 3.361 27.143-3.023 7.745-8.59 13.199-10.48 21.834-15.935-17.314-43.655-18.91-61.415-3.432-9.366 8.161-14.758 19.464-15.183 31.828-.369 10.752 3.314 21.483 10.183 29.761 5.21 6.278 22.927 11.953 24.206 19.287h-48.806c0 78.382 30.561 151.917 91.224 202.867 66.162 55.568 158.44 73.639 240.8 47.45l-4.545-14.295c-23.43 7.451-47.899 11.228-72.729 11.228-129.689 0-235.658-103.508-239.635-232.25h479.269c-2.648 85.181-50.267 162.643-125.615 203.457l7.145 13.189c85.836-49.315 133.586-124.315 133.586-231.646zm-27.921-59.43c13.235 16.618 17.94 38.815 12.513 59.43h-31.965c6.197-11.886 5.426-26.822-1.989-37.989zm-41.268 21.772c10.916 10.175 16.313 26.487 2.904 37.657h-11.507l-10.899-10.899c7.003-5.769 15.446-17.859 19.502-26.758zm-116.999 34.263-30.897-30.898c24.857-7.263 50.821-4.806 64.41-2.615zm-164.34-24.447c-1.116 6.995-2.236 16.703-2.336 27.842h-25.505zm251.521 27.842h-28.856c.11-10.746 1.267-20.102 2.332-26.525zm-51.852-51.853c-16.082-2.585-46.41-5.189-75.382 4.725l40.054-40.054zm-104.977.022c-6.982-1.113-16.668-2.234-27.78-2.34l-.143 14.999c10.495.1 19.673 1.206 26.096 2.251l-33.524 33.524-30.886-30.886c7.437-2.177 15.465-3.652 24.016-4.372l-1.26-14.947c-11.471.967-22.175 3.162-31.96 6.509l40.09-40.09zm-124.452-38.003c10.208-12.598-.015-23.296-.015-36.587 0-36.731 56.535-38.083 58.298-1.449.419 8.704-5.013 15.763-4.863 24.311.154 8.779 6.067 13.776 9.613 21.231l-26.433 26.433-12.682 12.682c-9.023-8.482-19.414-11.692-31.184-14.102-2.772-11.32-.071-23.467 7.266-32.519zm-68.219 68.107c-9.707-5.571-15.91-15.445-15.52-26.807.28-8.164 3.848-15.634 10.046-21.034 15.158-13.211 39.815-6.663 46.559 12.182 2.964 8.286 10.434 14.22 19.027 15.118 8.094.846 15.467 4.177 21.421 9.659l-21.309 21.308-10.329-10.328-10.605 10.608 11.329 11.021h-31.602c-.937-8.169-9.803-16.438-19.017-21.727zm110.645 21.727c.107-10.463 1.207-19.612 2.247-26.015l26.014 26.015zm92.222-27.136c-1.078 6.936-2.127 16.37-2.224 27.135h-24.911zm12.778 27.136c.107-10.463 1.207-19.612 2.247-26.015l26.014 26.015zm92.222-27.136c-1.078 6.936-2.127 16.37-2.224 27.135h-24.911z"/><path d="m134.636 125.836h15v15.009h-15z"/></g></g></svg>