<svg id="Capa_1" enable-background="new 0 0 512 512" height="512" viewBox="0 0 512 512" width="512" xmlns="http://www.w3.org/2000/svg" xmlns:xlink="http://www.w3.org/1999/xlink"><linearGradient id="SVGID_1_" gradientUnits="userSpaceOnUse" x1="256" x2="256" y1="512" y2="0"><stop offset="0" stop-color="#fd5900"/><stop offset="1" stop-color="#ffde00"/></linearGradient><g><g><path d="m181 150c8.284 0 15-6.716 15-15s-6.716-15-15-15-15 6.716-15 15 6.716 15 15 15zm0-60c8.284 0 15-6.716 15-15s-6.716-15-15-15-15 6.716-15 15 6.716 15 15 15zm180-30h-120c-8.284 0-15 6.716-15 15s6.716 15 15 15h120c8.284 0 15-6.716 15-15s-6.716-15-15-15zm120 362h-15v-377c0-24.813-20.187-45-45-45h-360c-24.813 0-45 20.187-45 45v60c0 8.284 6.716 15 15 15h45v347c0 24.813 20.187 45 45 45h300c41.355 0 75-33.645 75-75 0-8.284-6.716-15-15-15zm-405-332h-30v-45c0-8.271 6.729-15 15-15s15 6.729 15 15zm60 347v30c0 8.271-6.729 15-15 15s-15-6.729-15-15v-422c0-5.257-.906-10.306-2.57-15h317.57c8.271 0 15 6.729 15 15v377h-285c-8.284 0-15 6.716-15 15zm285 45h-257.58c1.665-4.695 2.58-9.742 2.58-15v-15.01h297.43c-6.191 17.471-22.873 30.01-42.43 30.01zm-60-362h-120c-8.284 0-15 6.716-15 15s6.716 15 15 15h120c8.284 0 15-6.716 15-15s-6.716-15-15-15zm0 60h-180c-8.284 0-15 6.716-15 15v151c0 8.284 6.716 15 15 15h180c8.284 0 15-6.716 15-15v-151c0-8.284-6.716-15-15-15zm-105 30h30v30h-30zm90 121h-150v-121h30v45c0 8.284 6.716 15 15 15h60c8.284 0 15-6.716 15-15v-45h30z" fill="url(#SVGID_1_)"/></g></g></svg>